<mxfile host="app.diagrams.net" modified="2023-11-12T09:55:14.304Z" agent="Mozilla/5.0 (Windows NT 10.0; Win64; x64) AppleWebKit/537.36 (KHTML, like Gecko) Chrome/119.0.0.0 Safari/537.36" etag="MKpVJss6KECm3KH-4B1i" version="22.1.0" type="device">
  <diagram name="Страница — 1" id="dJiiRWUhJKYUO9Ces_kw">
    <mxGraphModel dx="2266" dy="862" grid="1" gridSize="10" guides="1" tooltips="1" connect="1" arrows="1" fold="1" page="1" pageScale="1" pageWidth="827" pageHeight="1169" math="0" shadow="0">
      <root>
        <mxCell id="0" />
        <mxCell id="1" parent="0" />
        <mxCell id="r8oPRo4tz-VMtz2NMhSt-1" value="" style="endArrow=classic;html=1;rounded=0;entryX=0;entryY=0.5;entryDx=0;entryDy=0;" parent="1" target="r8oPRo4tz-VMtz2NMhSt-21" edge="1">
          <mxGeometry width="50" height="50" relative="1" as="geometry">
            <mxPoint x="140" y="325" as="sourcePoint" />
            <mxPoint x="120" y="320" as="targetPoint" />
          </mxGeometry>
        </mxCell>
        <mxCell id="r8oPRo4tz-VMtz2NMhSt-2" value="&lt;font style=&quot;font-size: 16px;&quot;&gt;Клиент&lt;/font&gt;" style="edgeLabel;html=1;align=center;verticalAlign=middle;resizable=0;points=[];" parent="r8oPRo4tz-VMtz2NMhSt-1" vertex="1" connectable="0">
          <mxGeometry x="0.02" y="1" relative="1" as="geometry">
            <mxPoint x="-7" y="-19" as="offset" />
          </mxGeometry>
        </mxCell>
        <mxCell id="r8oPRo4tz-VMtz2NMhSt-3" value="" style="endArrow=classic;html=1;rounded=0;entryX=0;entryY=0.5;entryDx=0;entryDy=0;" parent="1" target="r8oPRo4tz-VMtz2NMhSt-23" edge="1">
          <mxGeometry width="50" height="50" relative="1" as="geometry">
            <mxPoint x="140" y="525" as="sourcePoint" />
            <mxPoint x="320" y="470" as="targetPoint" />
          </mxGeometry>
        </mxCell>
        <mxCell id="r8oPRo4tz-VMtz2NMhSt-4" value="&lt;font style=&quot;font-size: 16px;&quot;&gt;Партии товаров от поставщиков&lt;/font&gt;" style="edgeLabel;html=1;align=center;verticalAlign=middle;resizable=0;points=[];" parent="r8oPRo4tz-VMtz2NMhSt-3" vertex="1" connectable="0">
          <mxGeometry x="0.295" y="-1" relative="1" as="geometry">
            <mxPoint x="-133" y="-16" as="offset" />
          </mxGeometry>
        </mxCell>
        <mxCell id="r8oPRo4tz-VMtz2NMhSt-5" value="" style="endArrow=classic;html=1;rounded=0;entryX=0.5;entryY=1;entryDx=0;entryDy=0;" parent="1" target="r8oPRo4tz-VMtz2NMhSt-23" edge="1">
          <mxGeometry width="50" height="50" relative="1" as="geometry">
            <mxPoint x="625" y="880" as="sourcePoint" />
            <mxPoint x="625.6700000000002" y="619.9999999999999" as="targetPoint" />
          </mxGeometry>
        </mxCell>
        <mxCell id="r8oPRo4tz-VMtz2NMhSt-6" value="&lt;font style=&quot;font-size: 16px;&quot;&gt;Складской &lt;br&gt;персонал&lt;br&gt;&lt;/font&gt;" style="edgeLabel;html=1;align=center;verticalAlign=middle;resizable=0;points=[];" parent="r8oPRo4tz-VMtz2NMhSt-5" vertex="1" connectable="0">
          <mxGeometry x="0.3075" y="3" relative="1" as="geometry">
            <mxPoint x="-52" y="173" as="offset" />
          </mxGeometry>
        </mxCell>
        <mxCell id="r8oPRo4tz-VMtz2NMhSt-7" value="" style="endArrow=classic;html=1;rounded=0;entryX=0.5;entryY=1;entryDx=0;entryDy=0;" parent="1" edge="1" target="jsbbswhYDhBQ7RAZDPtY-6">
          <mxGeometry width="50" height="50" relative="1" as="geometry">
            <mxPoint x="875" y="880" as="sourcePoint" />
            <mxPoint x="880" y="800" as="targetPoint" />
          </mxGeometry>
        </mxCell>
        <mxCell id="r8oPRo4tz-VMtz2NMhSt-8" value="&lt;font style=&quot;font-size: 16px;&quot;&gt;Руководитель&lt;br&gt;предприятия&lt;br&gt;&lt;/font&gt;" style="edgeLabel;html=1;align=center;verticalAlign=middle;resizable=0;points=[];" parent="r8oPRo4tz-VMtz2NMhSt-7" vertex="1" connectable="0">
          <mxGeometry x="0.3075" y="3" relative="1" as="geometry">
            <mxPoint x="-57" y="22" as="offset" />
          </mxGeometry>
        </mxCell>
        <mxCell id="r8oPRo4tz-VMtz2NMhSt-9" value="" style="endArrow=classic;html=1;rounded=0;entryX=0.5;entryY=1;entryDx=0;entryDy=0;" parent="1" target="r8oPRo4tz-VMtz2NMhSt-21" edge="1">
          <mxGeometry width="50" height="50" relative="1" as="geometry">
            <mxPoint x="385" y="880" as="sourcePoint" />
            <mxPoint x="480" y="680" as="targetPoint" />
          </mxGeometry>
        </mxCell>
        <mxCell id="r8oPRo4tz-VMtz2NMhSt-10" value="&lt;font style=&quot;font-size: 16px;&quot;&gt;Работники&lt;br&gt;отдела продаж&lt;br&gt;&lt;/font&gt;" style="edgeLabel;html=1;align=center;verticalAlign=middle;resizable=0;points=[];" parent="r8oPRo4tz-VMtz2NMhSt-9" vertex="1" connectable="0">
          <mxGeometry x="0.3075" y="3" relative="1" as="geometry">
            <mxPoint x="-72" y="308" as="offset" />
          </mxGeometry>
        </mxCell>
        <mxCell id="r8oPRo4tz-VMtz2NMhSt-11" value="" style="endArrow=none;html=1;rounded=0;startArrow=classic;startFill=1;endFill=0;exitX=0.5;exitY=0;exitDx=0;exitDy=0;entryX=1;entryY=0.25;entryDx=0;entryDy=0;" parent="1" target="jsbbswhYDhBQ7RAZDPtY-6" edge="1">
          <mxGeometry width="50" height="50" relative="1" as="geometry">
            <mxPoint x="375" y="280" as="sourcePoint" />
            <mxPoint x="1040" y="600" as="targetPoint" />
            <Array as="points">
              <mxPoint x="375" y="160" />
              <mxPoint x="1040" y="160" />
              <mxPoint x="1040" y="608" />
            </Array>
          </mxGeometry>
        </mxCell>
        <mxCell id="r8oPRo4tz-VMtz2NMhSt-12" value="&lt;font style=&quot;font-size: 16px;&quot;&gt;Договоры&lt;br&gt;и соглашения, &lt;br&gt;бухгалтерские &lt;br&gt;документы&lt;br&gt;&lt;/font&gt;" style="edgeLabel;html=1;align=center;verticalAlign=middle;resizable=0;points=[];" parent="r8oPRo4tz-VMtz2NMhSt-11" vertex="1" connectable="0">
          <mxGeometry x="0.3075" y="3" relative="1" as="geometry">
            <mxPoint x="-683" y="-28" as="offset" />
          </mxGeometry>
        </mxCell>
        <mxCell id="r8oPRo4tz-VMtz2NMhSt-13" value="" style="endArrow=none;html=1;rounded=0;startArrow=classic;startFill=1;endFill=0;exitX=0.801;exitY=0.013;exitDx=0;exitDy=0;exitPerimeter=0;" parent="1" source="r8oPRo4tz-VMtz2NMhSt-23" edge="1">
          <mxGeometry width="50" height="50" relative="1" as="geometry">
            <mxPoint x="680" y="200" as="sourcePoint" />
            <mxPoint x="680" y="40" as="targetPoint" />
          </mxGeometry>
        </mxCell>
        <mxCell id="r8oPRo4tz-VMtz2NMhSt-14" value="&lt;font style=&quot;font-size: 16px;&quot;&gt;Устав и&amp;nbsp;&lt;br&gt;положения &lt;br&gt;об&amp;nbsp;организации&lt;br&gt;работы склада&lt;br&gt;&lt;/font&gt;" style="edgeLabel;html=1;align=center;verticalAlign=middle;resizable=0;points=[];" parent="r8oPRo4tz-VMtz2NMhSt-13" vertex="1" connectable="0">
          <mxGeometry x="0.3075" y="3" relative="1" as="geometry">
            <mxPoint x="82" y="-83" as="offset" />
          </mxGeometry>
        </mxCell>
        <mxCell id="r8oPRo4tz-VMtz2NMhSt-15" value="" style="endArrow=none;html=1;rounded=0;startArrow=classic;startFill=1;endFill=0;exitX=0.5;exitY=0;exitDx=0;exitDy=0;" parent="1" source="r8oPRo4tz-VMtz2NMhSt-23" edge="1">
          <mxGeometry width="50" height="50" relative="1" as="geometry">
            <mxPoint x="880" y="200" as="sourcePoint" />
            <mxPoint x="830" y="40" as="targetPoint" />
            <Array as="points">
              <mxPoint x="625" y="240" />
              <mxPoint x="830" y="240" />
            </Array>
          </mxGeometry>
        </mxCell>
        <mxCell id="r8oPRo4tz-VMtz2NMhSt-16" value="&lt;font style=&quot;font-size: 16px;&quot;&gt;Журнал&lt;br&gt;приёма-передачи &lt;br&gt;товаров&lt;br&gt;&lt;/font&gt;" style="edgeLabel;html=1;align=center;verticalAlign=middle;resizable=0;points=[];" parent="r8oPRo4tz-VMtz2NMhSt-15" vertex="1" connectable="0">
          <mxGeometry x="0.3075" y="3" relative="1" as="geometry">
            <mxPoint x="-208" y="-141" as="offset" />
          </mxGeometry>
        </mxCell>
        <mxCell id="r8oPRo4tz-VMtz2NMhSt-17" value="" style="endArrow=classic;html=1;rounded=0;" parent="1" edge="1">
          <mxGeometry width="50" height="50" relative="1" as="geometry">
            <mxPoint x="720" y="500" as="sourcePoint" />
            <mxPoint x="1190" y="500" as="targetPoint" />
          </mxGeometry>
        </mxCell>
        <mxCell id="r8oPRo4tz-VMtz2NMhSt-18" value="&lt;font style=&quot;font-size: 16px;&quot;&gt;Клиент с товаром&lt;br&gt;&lt;/font&gt;" style="edgeLabel;html=1;align=center;verticalAlign=middle;resizable=0;points=[];" parent="r8oPRo4tz-VMtz2NMhSt-17" vertex="1" connectable="0">
          <mxGeometry x="0.02" y="1" relative="1" as="geometry">
            <mxPoint x="155" y="-14" as="offset" />
          </mxGeometry>
        </mxCell>
        <mxCell id="r8oPRo4tz-VMtz2NMhSt-28" style="edgeStyle=orthogonalEdgeStyle;rounded=0;orthogonalLoop=1;jettySize=auto;html=1;exitX=1;exitY=0.5;exitDx=0;exitDy=0;entryX=0;entryY=0.25;entryDx=0;entryDy=0;" parent="1" source="r8oPRo4tz-VMtz2NMhSt-21" target="r8oPRo4tz-VMtz2NMhSt-23" edge="1">
          <mxGeometry relative="1" as="geometry">
            <Array as="points">
              <mxPoint x="480" y="360" />
              <mxPoint x="505" y="360" />
              <mxPoint x="505" y="503" />
            </Array>
          </mxGeometry>
        </mxCell>
        <mxCell id="r8oPRo4tz-VMtz2NMhSt-21" value="&lt;font style=&quot;font-size: 16px;&quot;&gt;Отдел &lt;br&gt;продаж&lt;/font&gt;" style="rounded=0;whiteSpace=wrap;html=1;" parent="1" vertex="1">
          <mxGeometry x="290" y="280" width="190" height="90" as="geometry" />
        </mxCell>
        <mxCell id="r8oPRo4tz-VMtz2NMhSt-31" style="edgeStyle=orthogonalEdgeStyle;rounded=0;orthogonalLoop=1;jettySize=auto;html=1;exitX=1;exitY=0.75;exitDx=0;exitDy=0;entryX=0;entryY=0.25;entryDx=0;entryDy=0;" parent="1" source="r8oPRo4tz-VMtz2NMhSt-23" edge="1">
          <mxGeometry relative="1" as="geometry">
            <Array as="points">
              <mxPoint x="745" y="548" />
              <mxPoint x="745" y="608" />
            </Array>
            <mxPoint x="770" y="607.5" as="targetPoint" />
          </mxGeometry>
        </mxCell>
        <mxCell id="r8oPRo4tz-VMtz2NMhSt-23" value="&lt;font style=&quot;font-size: 16px;&quot;&gt;Склад&lt;/font&gt;" style="rounded=0;whiteSpace=wrap;html=1;" parent="1" vertex="1">
          <mxGeometry x="530" y="480" width="190" height="90" as="geometry" />
        </mxCell>
        <mxCell id="r8oPRo4tz-VMtz2NMhSt-25" value="" style="endArrow=classic;html=1;rounded=0;entryX=0.713;entryY=0.013;entryDx=0;entryDy=0;entryPerimeter=0;" parent="1" target="r8oPRo4tz-VMtz2NMhSt-21" edge="1">
          <mxGeometry width="50" height="50" relative="1" as="geometry">
            <mxPoint x="680" y="200" as="sourcePoint" />
            <mxPoint x="420" y="270" as="targetPoint" />
            <Array as="points">
              <mxPoint x="425" y="200" />
            </Array>
          </mxGeometry>
        </mxCell>
        <mxCell id="r8oPRo4tz-VMtz2NMhSt-26" value="" style="endArrow=classic;html=1;rounded=0;entryX=0.898;entryY=-0.004;entryDx=0;entryDy=0;entryPerimeter=0;" parent="1" target="r8oPRo4tz-VMtz2NMhSt-21" edge="1">
          <mxGeometry width="50" height="50" relative="1" as="geometry">
            <mxPoint x="630" y="240" as="sourcePoint" />
            <mxPoint x="690" y="400" as="targetPoint" />
            <Array as="points">
              <mxPoint x="460" y="240" />
            </Array>
          </mxGeometry>
        </mxCell>
        <mxCell id="r8oPRo4tz-VMtz2NMhSt-27" value="" style="endArrow=classic;html=1;rounded=0;entryX=0.5;entryY=0;entryDx=0;entryDy=0;" parent="1" edge="1">
          <mxGeometry width="50" height="50" relative="1" as="geometry">
            <mxPoint x="830" y="240" as="sourcePoint" />
            <mxPoint x="865" y="585" as="targetPoint" />
            <Array as="points">
              <mxPoint x="860" y="240" />
            </Array>
          </mxGeometry>
        </mxCell>
        <mxCell id="r8oPRo4tz-VMtz2NMhSt-33" value="&lt;font style=&quot;font-size: 16px;&quot;&gt;Сборка&lt;/font&gt;" style="text;html=1;align=center;verticalAlign=middle;resizable=0;points=[];autosize=1;strokeColor=none;fillColor=none;" parent="1" vertex="1">
          <mxGeometry x="500" y="370" width="80" height="30" as="geometry" />
        </mxCell>
        <mxCell id="jsbbswhYDhBQ7RAZDPtY-2" value="&lt;font style=&quot;font-size: 16px;&quot;&gt;Работа с поставщиками&lt;/font&gt;" style="text;html=1;align=center;verticalAlign=middle;resizable=0;points=[];autosize=1;strokeColor=none;fillColor=none;" parent="1" vertex="1">
          <mxGeometry x="990" y="640" width="200" height="30" as="geometry" />
        </mxCell>
        <mxCell id="jsbbswhYDhBQ7RAZDPtY-4" value="&lt;span style=&quot;font-size: 16px;&quot;&gt;Отчёты продаж&lt;/span&gt;" style="edgeLabel;html=1;align=center;verticalAlign=middle;resizable=0;points=[];" parent="1" vertex="1" connectable="0">
          <mxGeometry x="550.0013266629242" y="290.00058826060774" as="geometry">
            <mxPoint x="-3" y="-5" as="offset" />
          </mxGeometry>
        </mxCell>
        <mxCell id="jsbbswhYDhBQ7RAZDPtY-5" style="edgeStyle=orthogonalEdgeStyle;rounded=0;orthogonalLoop=1;jettySize=auto;html=1;exitX=1;exitY=0.25;exitDx=0;exitDy=0;" parent="1" source="r8oPRo4tz-VMtz2NMhSt-21" edge="1">
          <mxGeometry relative="1" as="geometry">
            <Array as="points">
              <mxPoint x="730" y="303" />
              <mxPoint x="730" y="640" />
              <mxPoint x="770" y="640" />
            </Array>
            <mxPoint x="720" y="510" as="sourcePoint" />
            <mxPoint x="770" y="640" as="targetPoint" />
          </mxGeometry>
        </mxCell>
        <mxCell id="jsbbswhYDhBQ7RAZDPtY-6" value="&lt;font style=&quot;font-size: 16px;&quot;&gt;Административный&lt;br&gt;отдел&lt;br&gt;&lt;/font&gt;" style="rounded=0;whiteSpace=wrap;html=1;" parent="1" vertex="1">
          <mxGeometry x="780" y="585" width="190" height="90" as="geometry" />
        </mxCell>
        <mxCell id="jsbbswhYDhBQ7RAZDPtY-9" value="&lt;font style=&quot;font-size: 16px;&quot;&gt;Отчёт об отгрузках&lt;/font&gt;" style="text;html=1;align=center;verticalAlign=middle;resizable=0;points=[];autosize=1;strokeColor=none;fillColor=none;" parent="1" vertex="1">
          <mxGeometry x="720" y="520" width="160" height="30" as="geometry" />
        </mxCell>
        <mxCell id="jsbbswhYDhBQ7RAZDPtY-11" value="" style="endArrow=classic;html=1;rounded=0;exitX=1;exitY=0.5;exitDx=0;exitDy=0;" parent="1" source="jsbbswhYDhBQ7RAZDPtY-6" edge="1">
          <mxGeometry width="50" height="50" relative="1" as="geometry">
            <mxPoint x="1161" y="790" as="sourcePoint" />
            <mxPoint x="1190" y="630" as="targetPoint" />
          </mxGeometry>
        </mxCell>
      </root>
    </mxGraphModel>
  </diagram>
</mxfile>
